# xmcd
#
# Track frame offsets:
#	150
#	12418
#	24171
#	36000
#	47595
#	61611
#	75483
#	89704
#	101593
#	113532
#	126538
#	138417
#	149254
#	164565
#	178805
#	192675
#	204295
#	217123
#	230607
#	241494
#	255945
#	271701
#	283201
#	295051
#	311275
#	323767
#	338181
#	353135
#
# Disc length: 4874 seconds
#
# Revision: 1
# Processed by: cddbd v1.5.2PL0 Copyright (c) Steve Scherf et al.
# Submitted via: audiograbber 1.83.01
#
DISCID=9b13081c
DTITLE=Various Artist - Acoustic Blues - The roots of it all Vol 2 - CD2- The 1950s
DYEAR=2014
DGENRE=Blues
TTITLE0=Dennis McMillon - Paper Wooden Daddy
TTITLE1=Manny Nichols and His Guitar - Walking Talking Blues
TTITLE2=Johnny Beck (The Blind Boy) - You've Got To Lay Down Mama
TTITLE3=James Tisdom - Model T Boogie
TTITLE4=Lawyer Houston - Dallas Be-Bop Blues
TTITLE5=Little David - You're Gonna Weep And Moan
TTITLE6=Pig 'n' Whistle Band - Talkin' To You Mama
TTITLE7=Lil' Son Jackson - Ticket Agent Blues
TTITLE8=Luther Huff - 1951 Blues
TTITLE9=The Larks - Eyesight To The Blind
TTITLE10=Luther Stoneham and His Guitar - January 11, 1949 Blues
TTITLE11=William "Talking Boy" Stewart - They Call Me Talking Boy
TTITLE12=Nat Terry - Take It Easy Baby
TTITLE13=John Lee - Down At The Depot
TTITLE14=Julius King - If You See My Lover
TTITLE15=Doug Quattlebaum - Don't Be Funny, Baby!
TTITLE16=Sister O.M. Terrell - I'm Going To The City
TTITLE17=Jimmy and Walter - Before Long
TTITLE18=Jesse Thomas - Gonna Move To California
TTITLE19=Big Son Tillis - D.C. Bender - Rocks Is My Pillow
TTITLE20=Jesse Fuller - San Francisco Bay Blues
TTITLE21=Lick, Slick and Slide - I Love My Baby
TTITLE22=Doctor Ross - Industrial Boogie
TTITLE23=Big Bill Broonzy - Willie Mae Blues
TTITLE24=Elizabeth Cotten - Freight Train
TTITLE25=Snooks Eaglin - See See Rider
TTITLE26=John Lee Hooker - Burnin' Hell
TTITLE27=Mississippi Fred McDowell - Keep Your Lamp Trimmed And Burning
EXTD=
EXTT0=
EXTT1=
EXTT2=
EXTT3=
EXTT4=
EXTT5=
EXTT6=
EXTT7=
EXTT8=
EXTT9=
EXTT10=
EXTT11=
EXTT12=
EXTT13=
EXTT14=
EXTT15=
EXTT16=
EXTT17=
EXTT18=
EXTT19=
EXTT20=
EXTT21=
EXTT22=
EXTT23=
EXTT24=
EXTT25=
EXTT26=
EXTT27=
PLAYORDER=
